<svg width="70" height="40" viewBox="0 0 70 40" fill="none" xmlns="http://www.w3.org/2000/svg">
<g clip-path="url(#clip0_9_199)">
<path d="M1.60315 8.69519H6.15971V27.017H15.0498V31H1.60315V8.69519ZM16.2895 23.6713C16.2895 22.1418 16.64 20.8035 17.341 19.6564C18.0632 18.5093 19.0298 17.6171 20.2406 16.9798C21.4727 16.3426 22.8641 16.0239 24.4148 16.0239C25.9655 16.0239 27.3463 16.3426 28.5571 16.9798C29.7892 17.6171 30.7557 18.5093 31.4568 19.6564C32.179 20.8035 32.5401 22.1418 32.5401 23.6713C32.5401 25.1795 32.179 26.5178 31.4568 27.6861C30.7557 28.8332 29.7892 29.7254 28.5571 30.3627C27.3463 31 25.9655 31.3186 24.4148 31.3186C22.8641 31.3186 21.4727 31 20.2406 30.3627C19.0298 29.7254 18.0632 28.8332 17.341 27.6861C16.64 26.5178 16.2895 25.1795 16.2895 23.6713ZM20.4955 23.6713C20.4955 24.4997 20.6655 25.2326 21.0054 25.8699C21.3665 26.4859 21.8444 26.9745 22.4392 27.3356C23.034 27.6755 23.6926 27.8455 24.4148 27.8455C25.1371 27.8455 25.7956 27.6755 26.3904 27.3356C26.9852 26.9745 27.4525 26.4859 27.7924 25.8699C28.1535 25.2326 28.3341 24.4997 28.3341 23.6713C28.3341 22.8428 28.1535 22.1099 27.7924 21.4727C27.4525 20.8354 26.9852 20.3468 26.3904 20.0069C25.7956 19.667 25.1371 19.4971 24.4148 19.4971C23.6926 19.4971 23.034 19.667 22.4392 20.0069C21.8444 20.3468 21.3665 20.8354 21.0054 21.4727C20.6655 22.1099 20.4955 22.8428 20.4955 23.6713ZM34.9354 32.0196H38.9821C39.0034 32.6569 39.1733 33.1986 39.492 33.6447C39.8106 34.1121 40.2461 34.4732 40.7984 34.7281C41.3507 34.983 41.9986 35.1105 42.7421 35.1105C43.4219 35.1105 44.0591 34.9511 44.6539 34.6325C45.27 34.3139 45.7585 33.8253 46.1197 33.1668C46.502 32.5082 46.6932 31.6798 46.6932 30.6814V16.3426H50.6762V30.6814C50.6762 32.487 50.3151 33.974 49.5929 35.1423C48.8918 36.3107 47.9465 37.1604 46.757 37.6914C45.5674 38.2438 44.2716 38.5199 42.8695 38.5199C41.1701 38.5199 39.7469 38.2438 38.5998 37.6914C37.4527 37.1604 36.5711 36.3956 35.9551 35.3972C35.3603 34.4201 35.0204 33.2942 34.9354 32.0196ZM34.6486 23.5438C34.6486 21.9081 34.9779 20.538 35.6364 19.4334C36.2949 18.3075 37.1659 17.4578 38.2493 16.8842C39.3326 16.3107 40.4797 16.0239 41.6906 16.0239C42.9227 16.0239 44.006 16.3213 44.9407 16.9161C45.8966 17.5109 46.6401 18.3712 47.1712 19.4971C47.7235 20.6017 47.9997 21.9506 47.9997 23.5438C47.9997 25.1158 47.7235 26.4647 47.1712 27.5905C46.6401 28.7164 45.8966 29.5767 44.9407 30.1715C44.006 30.7451 42.9227 31.0319 41.6906 31.0319C40.4797 31.0319 39.3326 30.7451 38.2493 30.1715C37.1659 29.598 36.2949 28.7589 35.6364 27.6543C34.9779 26.5284 34.6486 25.1583 34.6486 23.5438ZM38.9184 23.5438C38.9184 24.4148 39.099 25.1583 39.4601 25.7743C39.8212 26.3691 40.3098 26.8258 40.9258 27.1445C41.5419 27.4631 42.2004 27.6224 42.9014 27.6224C43.5174 27.6224 44.1122 27.4737 44.6858 27.1763C45.2806 26.8577 45.7585 26.401 46.1197 25.8062C46.502 25.1901 46.6932 24.436 46.6932 23.5438C46.6932 22.8641 46.587 22.2693 46.3746 21.7594C46.1622 21.2496 45.8648 20.8248 45.4824 20.4849C45.1213 20.145 44.7177 19.8901 44.2716 19.7201C43.8255 19.529 43.3687 19.4334 42.9014 19.4334C42.2004 19.4334 41.5419 19.5927 40.9258 19.9113C40.3098 20.23 39.8212 20.6973 39.4601 21.3133C39.099 21.9081 38.9184 22.6516 38.9184 23.5438ZM53.6924 23.6713C53.6924 22.1418 54.0429 20.8035 54.7439 19.6564C55.4661 18.5093 56.4327 17.6171 57.6435 16.9798C58.8756 16.3426 60.267 16.0239 61.8177 16.0239C63.3684 16.0239 64.7492 16.3426 65.96 16.9798C67.1921 17.6171 68.1586 18.5093 68.8596 19.6564C69.5819 20.8035 69.943 22.1418 69.943 23.6713C69.943 25.1795 69.5819 26.5178 68.8596 27.6861C68.1586 28.8332 67.1921 29.7254 65.96 30.3627C64.7492 31 63.3684 31.3186 61.8177 31.3186C60.267 31.3186 58.8756 31 57.6435 30.3627C56.4327 29.7254 55.4661 28.8332 54.7439 27.6861C54.0429 26.5178 53.6924 25.1795 53.6924 23.6713ZM57.8984 23.6713C57.8984 24.4997 58.0684 25.2326 58.4082 25.8699C58.7694 26.4859 59.2473 26.9745 59.8421 27.3356C60.4369 27.6755 61.0954 27.8455 61.8177 27.8455C62.5399 27.8455 63.1985 27.6755 63.7933 27.3356C64.388 26.9745 64.8554 26.4859 65.1953 25.8699C65.5564 25.2326 65.737 24.4997 65.737 23.6713C65.737 22.8428 65.5564 22.1099 65.1953 21.4727C64.8554 20.8354 64.388 20.3468 63.7933 20.0069C63.1985 19.667 62.5399 19.4971 61.8177 19.4971C61.0954 19.4971 60.4369 19.667 59.8421 20.0069C59.2473 20.3468 58.7694 20.8354 58.4082 21.4727C58.0684 22.1099 57.8984 22.8428 57.8984 23.6713Z" fill="black"/>
</g>
<defs>
<clipPath id="clip0_9_199">
<rect width="70" height="40" fill="white"/>
</clipPath>
</defs>
</svg>
