<svg width="141" height="78" viewBox="0 0 141 78" fill="none" xmlns="http://www.w3.org/2000/svg">
<g clip-path="url(#clip0_2_1778)">
<path d="M1.54556 62V16.2044H7.09111V57.0806H28.3789V62H1.54556ZM50.2033 62.7156C47.1026 62.7156 44.382 61.9776 42.0415 60.5018C39.716 59.026 37.8973 56.9613 36.5854 54.3078C35.2885 51.6543 34.64 48.5535 34.64 45.0056C34.64 41.4278 35.2885 38.3047 36.5854 35.6362C37.8973 32.9678 39.716 30.8957 42.0415 29.4199C44.382 27.944 47.1026 27.2061 50.2033 27.2061C53.3041 27.2061 56.0172 27.944 58.3428 29.4199C60.6832 30.8957 62.5019 32.9678 63.7989 35.6362C65.1107 38.3047 65.7667 41.4278 65.7667 45.0056C65.7667 48.5535 65.1107 51.6543 63.7989 54.3078C62.5019 56.9613 60.6832 59.026 58.3428 60.5018C56.0172 61.9776 53.3041 62.7156 50.2033 62.7156ZM50.2033 57.975C52.5587 57.975 54.4967 57.3713 56.0172 56.1637C57.5378 54.9562 58.6633 53.3686 59.3937 51.4008C60.1242 49.4331 60.4894 47.3013 60.4894 45.0056C60.4894 42.7098 60.1242 40.5706 59.3937 38.5879C58.6633 36.6052 57.5378 35.0027 56.0172 33.7803C54.4967 32.5579 52.5587 31.9467 50.2033 31.9467C47.848 31.9467 45.91 32.5579 44.3894 33.7803C42.8689 35.0027 41.7434 36.6052 41.0129 38.5879C40.2825 40.5706 39.9172 42.7098 39.9172 45.0056C39.9172 47.3013 40.2825 49.4331 41.0129 51.4008C41.7434 53.3686 42.8689 54.9562 44.3894 56.1637C45.91 57.3713 47.848 57.975 50.2033 57.975ZM87.6861 75.5956C85.137 75.5956 82.9456 75.2676 81.112 74.6117C79.2784 73.9706 77.7504 73.1209 76.5279 72.0625C75.3204 71.019 74.3589 69.9009 73.6434 68.7083L77.8472 65.7567C78.3243 66.3828 78.928 67.0983 79.6585 67.9033C80.389 68.7232 81.3878 69.4313 82.6549 70.0276C83.9369 70.6388 85.614 70.9444 87.6861 70.9444C90.4589 70.9444 92.7472 70.2736 94.551 68.9319C96.3548 67.5903 97.2567 65.4883 97.2567 62.6261V55.6494H96.8095C96.4219 56.2756 95.8703 57.0507 95.1547 57.975C94.4541 58.8844 93.4404 59.6968 92.1136 60.4124C90.8018 61.113 89.0278 61.4633 86.7917 61.4633C84.0189 61.4633 81.5294 60.8074 79.3231 59.4956C77.1317 58.1837 75.395 56.2756 74.1129 53.7711C72.8458 51.2667 72.2122 48.2256 72.2122 44.6478C72.2122 41.1296 72.8309 38.0662 74.0682 35.4574C75.3055 32.8337 77.0273 30.8062 79.2336 29.3751C81.4399 27.9291 83.9891 27.2061 86.8811 27.2061C89.1172 27.2061 90.8912 27.5788 92.2031 28.3242C93.5298 29.0546 94.5435 29.8894 95.2442 30.8286C95.9597 31.7529 96.5113 32.5131 96.8989 33.1094H97.4356V27.6533H102.534V62.9839C102.534 65.9356 101.863 68.3356 100.521 70.1842C99.1947 72.0476 97.4058 73.4116 95.1547 74.2762C92.9186 75.1558 90.4291 75.5956 87.6861 75.5956ZM87.5072 56.7228C89.6241 56.7228 91.413 56.2383 92.8739 55.2693C94.3348 54.3003 95.4454 52.9065 96.2057 51.0878C96.966 49.2691 97.3461 47.0926 97.3461 44.5583C97.3461 42.0837 96.9735 39.8998 96.2281 38.0065C95.4827 36.1133 94.3796 34.63 92.9186 33.5567C91.4577 32.4833 89.6539 31.9467 87.5072 31.9467C85.2711 31.9467 83.4077 32.5131 81.917 33.6461C80.4411 34.7791 79.3305 36.2996 78.5852 38.2078C77.8547 40.1159 77.4895 42.2328 77.4895 44.5583C77.4895 46.9435 77.8622 49.0529 78.6075 50.8865C79.3678 52.7052 80.4859 54.1363 81.9617 55.1799C83.4524 56.2085 85.301 56.7228 87.5072 56.7228ZM126.147 62.7156C123.047 62.7156 120.326 61.9776 117.985 60.5018C115.66 59.026 113.841 56.9613 112.529 54.3078C111.232 51.6543 110.584 48.5535 110.584 45.0056C110.584 41.4278 111.232 38.3047 112.529 35.6362C113.841 32.9678 115.66 30.8957 117.985 29.4199C120.326 27.944 123.047 27.2061 126.147 27.2061C129.248 27.2061 131.961 27.944 134.287 29.4199C136.627 30.8957 138.446 32.9678 139.743 35.6362C141.055 38.3047 141.711 41.4278 141.711 45.0056C141.711 48.5535 141.055 51.6543 139.743 54.3078C138.446 56.9613 136.627 59.026 134.287 60.5018C131.961 61.9776 129.248 62.7156 126.147 62.7156ZM126.147 57.975C128.503 57.975 130.441 57.3713 131.961 56.1637C133.482 54.9562 134.607 53.3686 135.338 51.4008C136.068 49.4331 136.433 47.3013 136.433 45.0056C136.433 42.7098 136.068 40.5706 135.338 38.5879C134.607 36.6052 133.482 35.0027 131.961 33.7803C130.441 32.5579 128.503 31.9467 126.147 31.9467C123.792 31.9467 121.854 32.5579 120.333 33.7803C118.813 35.0027 117.687 36.6052 116.957 38.5879C116.226 40.5706 115.861 42.7098 115.861 45.0056C115.861 47.3013 116.226 49.4331 116.957 51.4008C117.687 53.3686 118.813 54.9562 120.333 56.1637C121.854 57.3713 123.792 57.975 126.147 57.975Z" fill="black"/>
</g>
<defs>
<clipPath id="clip0_2_1778">
<rect width="141" height="78" fill="white"/>
</clipPath>
</defs>
</svg>
